<svg width="100" height="117" viewBox="0 0 100 117" fill="none" xmlns="http://www.w3.org/2000/svg">
<path d="M96.2107 94.6873H3.78929C1.69643 94.6873 0 92.9841 0 90.883C0 88.7819 1.69643 87.0787 3.78929 87.0787H96.2107C98.3036 87.0787 100 88.7819 100 90.883C100 92.9841 98.3036 94.6873 96.2107 94.6873Z" fill="white"/>
<path d="M58.3286 91.2631C57.8 91.2631 57.3393 90.8938 57.2214 90.3739L44.5107 34.3711C44.0071 32.1624 41.8178 30.7784 39.6178 31.284C38.0857 31.6354 36.8928 32.8365 36.5428 34.3711L23.8393 90.3739C23.7143 90.9906 23.1143 91.3886 22.5 91.2631C21.8857 91.1376 21.4893 90.5352 21.6143 89.9185C21.6143 89.9006 21.6214 89.8862 21.625 89.8683L34.3286 33.8656C35.1107 30.427 38.5214 28.2793 41.9428 29.0609C44.325 29.6059 46.1821 31.474 46.7286 33.8656L59.4393 89.8683C59.5786 90.485 59.1928 91.0946 58.5821 91.2344C58.5 91.2523 58.4143 91.2631 58.3286 91.2631Z" fill="#3D345F"/>
<path d="M22.2964 95.0638L21.6214 94.9383C18.9714 94.3288 17.3107 91.6826 17.9107 89.0186L30.6214 33.0158C31.8714 27.5299 37.3107 24.1021 42.775 25.3571C46.5714 26.2284 49.5357 29.2044 50.4036 33.0158L63.1143 89.0186C63.7143 91.679 62.0572 94.3288 59.4036 94.9383L58.9893 95.0315L58.3143 95.0602C56.0143 95.0674 54.0179 93.4682 53.5143 91.2129L40.8143 35.2138L27.5214 91.2165C27.0214 93.4718 25.0214 95.071 22.7214 95.0638H22.2929H22.2964Z" fill="white"/>
<path d="M49.0928 82.1844C48.4964 82.1844 47.9071 82.0445 47.3714 81.772L31.6786 73.7261C29.8143 72.7723 29.075 70.4811 30.025 68.6095C30.975 66.7414 33.2571 65.9956 35.1178 66.9494L50.8143 74.9918C52.6786 75.9455 53.4178 78.2367 52.4678 80.1083C51.8214 81.3812 50.5143 82.1844 49.0893 82.1844H49.0928Z" fill="white"/>
<path d="M45.3786 65.0706C44.7822 65.0706 44.1929 64.9236 43.6607 64.6475L35 60.2158C33.1357 59.262 32.3965 56.9709 33.3465 55.0992C34.2965 53.2312 36.5786 52.4854 38.4393 53.4391L47.1036 57.8744C48.9679 58.8246 49.7107 61.1158 48.7643 62.9874C48.1179 64.2675 46.8072 65.0706 45.3786 65.0671V65.0706Z" fill="white"/>
<path d="M29.0964 94.4076C27.675 94.4076 26.3714 93.6045 25.725 92.3316C24.775 90.4599 25.5143 88.1724 27.3786 87.215L47.7536 76.7739C49.6179 75.8201 51.8964 76.5623 52.8464 78.434C53.7964 80.3056 53.0571 82.5932 51.1929 83.5506L30.8143 93.9917C30.2821 94.2642 29.6929 94.4076 29.0964 94.4076Z" fill="white"/>
<path d="M33.7857 72.9874C32.3643 72.9874 31.0607 72.1843 30.4143 70.9114C29.4679 69.0433 30.2036 66.7593 32.0607 65.802L44.0964 59.6348C45.9607 58.6811 48.2393 59.4233 49.1929 61.2949C50.1429 63.1666 49.4036 65.4542 47.5393 66.4115L35.5036 72.5787C34.9714 72.8512 34.3821 72.991 33.7857 72.991V72.9874Z" fill="white"/>
<path d="M46.5964 37.1105C45.9678 37.1105 45.4607 36.6013 45.4607 35.9702C45.4607 35.5256 45.7178 35.1241 46.1178 34.9376L73.6107 22.0655L72.3357 19.3261L44.8571 32.1875C44.2893 32.4528 43.6107 32.2054 43.3464 31.6353C43.0821 31.0652 43.3286 30.384 43.8964 30.1186L72.4107 16.7696C72.9785 16.5043 73.6535 16.7517 73.9214 17.3218L76.1571 22.13C76.4214 22.7001 76.1785 23.3814 75.6071 23.6467L47.0786 37.0029C46.9286 37.0746 46.7643 37.1105 46.6 37.1105H46.5964Z" fill="#3D345F"/>
<path d="M46.5965 40.9147C43.8786 40.9147 41.675 38.6988 41.6786 35.9702C41.6786 35.7515 41.6929 35.5292 41.7215 35.3105C39.4322 33.8404 38.7679 30.7855 40.2322 28.4872C40.7357 27.6983 41.4536 27.0673 42.3 26.6729L71.5715 12.9689L72.8893 12.8613C74.8 12.8685 76.5393 13.98 77.35 15.7154L79.5857 20.5201C80.7357 22.9941 79.6679 25.9343 77.2036 27.0888L47.9143 40.8035L46.5965 40.9111V40.9147Z" fill="white"/>
<path d="M7.72858 55.3072C7.28573 55.3072 6.88573 55.049 6.70001 54.6474L4.4643 49.8392C4.20001 49.2691 4.44644 48.5914 5.0143 48.3225L34.2072 34.6544C34.775 34.3891 35.4536 34.6365 35.7179 35.2066C35.9822 35.7767 35.7357 36.4579 35.1679 36.7232L7.00715 49.9073L8.28215 52.6503L32.7036 41.2159C33.275 40.9578 33.95 41.2159 34.2036 41.7932C34.4536 42.3561 34.2143 43.0123 33.6643 43.2812L8.21073 55.196C8.06073 55.2677 7.89644 55.3036 7.73215 55.3036L7.72858 55.3072Z" fill="#3D345F"/>
<path d="M7.72858 59.1113H7.06072L6.05 58.8137C4.81786 58.3691 3.81786 57.4476 3.26786 56.2572L1.03572 51.449C-0.11071 48.975 0.953575 46.0348 3.41786 44.8803L33.3714 30.8572L34.6893 30.7496C36.6 30.7532 38.3393 31.8647 39.1536 33.6037C40.175 35.8053 39.4536 38.4263 37.4536 39.7888C37.525 39.9107 37.5893 40.0362 37.6464 40.1653C38.7964 42.6393 37.7286 45.5795 35.2643 46.734L9.05358 59.0038L7.72858 59.1113Z" fill="white"/>
<path d="M90.9036 34.2241C90.6928 34.2241 90.4857 34.1667 90.3071 34.052L74.4 24.1666C73.8714 23.826 73.7214 23.1196 74.0607 22.589C74.3928 22.0727 75.0714 21.9149 75.5964 22.2268L90.8214 31.6891L93.275 29.7206L82.5714 7.51173L73.7821 6.24961L73.1 17.1855C73.0607 17.8166 72.5214 18.2935 71.8928 18.254C71.2643 18.2146 70.7893 17.6732 70.8286 17.0421L71.5893 4.87276C71.6286 4.24529 72.1679 3.76483 72.7929 3.80427C72.8214 3.80427 72.8536 3.80785 72.8821 3.81502L83.4893 5.3353C83.8643 5.38908 84.1857 5.62573 84.35 5.96635L95.7143 29.5414C95.9464 30.0218 95.8143 30.5955 95.4036 30.929L91.6143 33.9767C91.4107 34.138 91.1607 34.2241 90.9036 34.2241Z" fill="#3D345F"/>
<path d="M90.9036 38.0284H89.825L88.3107 37.2897L72.4036 27.4008C70.4893 26.2104 69.625 23.8654 70.3 21.7105C68.25 20.9862 66.9214 18.9855 67.0536 16.8055L67.8072 4.63612C67.8964 3.25927 68.55 1.98281 69.6143 1.11152C70.4929 0.394411 71.5893 0.00358555 72.7214 0L84.0214 1.57047C85.6429 1.80353 87.0464 2.829 87.7572 4.30983L99.1215 27.8848C100.132 29.9609 99.5679 32.4636 97.7643 33.8978L92.9393 37.7738L90.9 38.0248L90.9036 38.0284ZM76.6786 18.5481L77.5893 18.9927L86.5964 24.5897L80.0393 10.9861L77.3072 10.5953L76.8822 17.4222C76.8572 17.8058 76.7893 18.1823 76.6786 18.5481Z" fill="white"/>
<path d="M87.1143 84.4182C86.4857 84.4182 85.9786 83.9091 85.9786 83.278V31.56C85.9786 30.9289 86.4857 30.4198 87.1143 30.4198C87.7429 30.4198 88.25 30.9289 88.25 31.56V83.2744C88.25 83.9055 87.7429 84.4146 87.1143 84.4146V84.4182Z" fill="#3D345F"/>
<path d="M87.1143 88.219C84.3964 88.219 82.1928 86.0067 82.1893 83.2781V31.5601C82.1893 28.8315 84.3964 26.6192 87.1143 26.6156C89.8321 26.6156 92.0357 28.8315 92.0393 31.5601V83.2745C92.0357 86.0031 89.8321 88.2154 87.1143 88.2154V88.219Z" fill="white"/>
<path d="M84.0857 83.6581H90.1429C90.7714 83.6581 91.2822 84.1672 91.2822 84.7947V90.8758C91.2822 91.5068 90.775 92.0196 90.15 92.0196C90.15 92.0196 90.1464 92.0196 90.1429 92.0196H84.0857C83.4572 92.0196 82.95 91.5104 82.95 90.8794V84.7983C82.95 84.1672 83.4572 83.6581 84.0857 83.6581ZM89.0107 85.9385H85.2214V89.7428H89.0107V85.9385Z" fill="#3D345F"/>
<path d="M84.0857 79.8538H90.1464C92.8643 79.8538 95.0679 82.0696 95.0714 84.7982V90.8829C95.0714 93.6115 92.8643 95.8238 90.1464 95.8274H84.0857C81.3679 95.8274 79.1643 93.6115 79.1607 90.8829V84.7982C79.1607 82.0696 81.3679 79.8573 84.0857 79.8538Z" fill="white"/>
<path d="M6.0607 80.614H13.6357C14.2643 80.614 14.7714 81.1232 14.7714 81.7542V90.883C14.7714 91.5141 14.2607 92.0232 13.6357 92.0232H6.0607C5.43213 92.0232 4.92499 91.5141 4.92499 90.883V81.7542C4.92499 81.1232 5.43213 80.614 6.0607 80.614ZM12.5 82.8944H7.19642V89.7392H12.5V82.8944Z" fill="#3D345F"/>
<path d="M6.06071 76.8132H13.6357C16.3536 76.8168 18.5536 79.0291 18.5571 81.7577V90.8829C18.5571 93.6115 16.3536 95.8238 13.6357 95.8274H6.06071C3.34285 95.8274 1.13928 93.6115 1.13571 90.8829V81.7577C1.13571 79.0291 3.34285 76.8168 6.06071 76.8132Z" fill="white"/>
<path d="M9.84644 82.1378C9.21787 82.1378 8.71072 81.6287 8.71072 80.9976V54.3785C8.71072 53.7474 9.21787 53.2383 9.84644 53.2383C10.475 53.2383 10.9822 53.7474 10.9822 54.3785V80.9976C10.9822 81.6287 10.475 82.1378 9.84644 82.1378Z" fill="#3D345F"/>
<path d="M9.84642 85.9385C7.12856 85.9385 4.92499 83.7226 4.92142 80.994V54.3749C4.92142 51.6463 7.12856 49.434 9.84642 49.4304C12.5643 49.4304 14.7678 51.6463 14.7714 54.3749V80.994C14.7714 83.7226 12.5643 85.9349 9.84642 85.9385Z" fill="white"/>
<path d="M60.1964 44.597H10.7964V86.6484H60.1964V44.597Z" fill="white"/>
<path d="M83.8285 26.2677H43.0178V88.8033H83.8285V26.2677Z" fill="white"/>
<mask id="mask0_5_232" style="mask-type:luminance" maskUnits="userSpaceOnUse" x="3" y="3" width="94" height="92">
<path d="M96.7107 3.625H3.27856V94.1925H96.7107V3.625Z" fill="white"/>
</mask>
<g mask="url(#mask0_5_232)">
<path d="M73.4214 18.9675L44.9857 32.1803C42.6 30.1258 39.0071 30.4019 36.9607 32.797C36.3571 33.5034 35.9357 34.346 35.7286 35.2531L35.4179 36.63L6.34644 50.1367L8.19286 54.1382L34.1857 42.0585L23.1071 90.8829H29.725L41.1893 41.4489L52.6536 90.8829H59.4714L47.0286 36.0921L75.2679 22.9726L73.4214 18.9711V18.9675Z" fill="#B0D7E1"/>
<path d="M84.4643 7.22486L73.8571 5.70459L73.1 17.874L75.3714 23.1949L91.2786 33.0803L95.0678 30.0326L84.4607 7.22128L84.4643 7.22486Z" fill="#B0D7E1"/>
<path d="M96.2036 92.0232H3.78571C3.15714 92.0232 2.64999 91.5141 2.64999 90.883C2.64999 90.2519 3.15714 89.7428 3.78571 89.7428H96.2036C96.8321 89.7428 97.3393 90.2519 97.3393 90.883C97.3393 91.5141 96.8321 92.0232 96.2036 92.0232Z" fill="#3D345F"/>
<path d="M52.15 91.4244C51.6214 91.4244 51.1607 91.055 51.0429 90.5351L40.5286 44.2026L30.0143 90.5244C29.8607 91.1339 29.2429 91.5068 28.6357 91.3526C28.0464 91.2021 27.6786 90.614 27.8 90.0188L39.4214 38.8136C39.5607 38.2004 40.1714 37.8168 40.7821 37.9566C41.2071 38.0534 41.5393 38.3869 41.6357 38.8136L53.2571 90.026C53.3964 90.6427 53.0107 91.2523 52.4 91.3921C52.3179 91.41 52.2321 91.4208 52.1464 91.4208L52.15 91.4244Z" fill="#3D345F"/>
<path d="M58.3286 91.2631C57.8 91.2631 57.3393 90.8938 57.2214 90.3739L44.5107 34.3711C44.0071 32.1624 41.8178 30.7784 39.6178 31.284C38.0857 31.6354 36.8928 32.8365 36.5428 34.3711L23.8393 90.3739C23.7143 90.9906 23.1143 91.3886 22.5 91.2631C21.8857 91.1376 21.4893 90.5352 21.6143 89.9185C21.6143 89.9006 21.6214 89.8862 21.625 89.8683L34.3286 33.8656C35.1107 30.427 38.5214 28.2793 41.9428 29.0609C44.325 29.6059 46.1821 31.474 46.7286 33.8656L59.4393 89.8683C59.5786 90.485 59.1928 91.0946 58.5821 91.2344C58.5 91.2523 58.4143 91.2631 58.3286 91.2631Z" fill="#3D345F"/>
<path d="M49.0964 79.5204C48.9179 79.5204 48.7393 79.4773 48.5821 79.3949L32.8857 71.3525C32.325 71.0656 32.1036 70.3808 32.3893 69.8179C32.675 69.2549 33.3571 69.0326 33.9179 69.3195L49.6143 77.3619C50.175 77.6487 50.3964 78.3335 50.1107 78.8965C49.9179 79.2801 49.525 79.5204 49.0964 79.5204Z" fill="#3D345F"/>
<path d="M45.3822 62.4101C45.2036 62.4101 45.025 62.367 44.8679 62.2846L36.2036 57.8456C35.6429 57.5588 35.4214 56.874 35.7072 56.311C35.9929 55.7481 36.675 55.5258 37.2357 55.8126L45.9 60.2515C46.4607 60.5384 46.6822 61.2232 46.3965 61.7862C46.2036 62.1698 45.8107 62.4101 45.3822 62.4101Z" fill="#3D345F"/>
<path d="M29.0929 91.7471C28.6643 91.7471 28.275 91.5069 28.0822 91.1232C27.7964 90.5603 28.0179 89.8754 28.5786 89.5886L48.9572 79.1475C49.5179 78.8606 50.2 79.0829 50.4857 79.6459C50.7715 80.2088 50.5465 80.8936 49.9893 81.1805L29.6107 91.6216C29.45 91.7041 29.275 91.7471 29.0965 91.7471H29.0929Z" fill="#3D345F"/>
<path d="M33.7821 70.3342C33.3536 70.3342 32.9643 70.094 32.7714 69.7103C32.4857 69.1474 32.7071 68.4626 33.2679 68.1757L45.3 62.0086C45.8607 61.7217 46.5429 61.944 46.8286 62.507C47.1143 63.0699 46.8929 63.7547 46.3321 64.0416L34.2964 70.2087C34.1357 70.2912 33.9607 70.3342 33.7821 70.3342Z" fill="#3D345F"/>
<path d="M46.5964 37.1105C45.9678 37.1105 45.4607 36.6013 45.4607 35.9702C45.4607 35.5256 45.7178 35.1241 46.1178 34.9376L73.6107 22.0655L72.3357 19.3261L44.8571 32.1875C44.2893 32.4528 43.6107 32.2054 43.3464 31.6353C43.0821 31.0652 43.3286 30.384 43.8964 30.1186L72.4107 16.7696C72.9785 16.5043 73.6535 16.7517 73.9214 17.3218L76.1571 22.13C76.4214 22.7001 76.1785 23.3814 75.6071 23.6467L47.0786 37.0029C46.9286 37.0746 46.7643 37.1105 46.6 37.1105H46.5964Z" fill="#3D345F"/>
<path d="M7.72855 55.3072C7.2857 55.3072 6.8857 55.049 6.69998 54.6474L4.46427 49.8392C4.19998 49.2691 4.44641 48.5914 5.01427 48.3225L34.2071 34.6544C34.775 34.3891 35.4536 34.6365 35.7178 35.2066C35.9821 35.7767 35.7357 36.4579 35.1678 36.7232L7.00712 49.9073L8.28212 52.6503L32.7036 41.2159C33.275 40.9578 33.95 41.2159 34.2036 41.7932C34.4536 42.3561 34.2143 43.0123 33.6643 43.2812L8.2107 55.196C8.0607 55.2677 7.89641 55.3036 7.73212 55.3036L7.72855 55.3072Z" fill="#3D345F"/>
<path d="M90.9036 34.2241C90.6928 34.2241 90.4857 34.1667 90.3071 34.052L74.4 24.1666C73.8714 23.826 73.7214 23.1196 74.0607 22.589C74.3928 22.0727 75.0714 21.9149 75.5964 22.2268L90.8214 31.6891L93.275 29.7206L82.5714 7.51173L73.7821 6.24961L73.1 17.1855C73.0607 17.8166 72.5214 18.2935 71.8928 18.254C71.2643 18.2146 70.7893 17.6732 70.8286 17.0421L71.5893 4.87276C71.6286 4.24529 72.1679 3.76483 72.7929 3.80427C72.8214 3.80427 72.8536 3.80785 72.8821 3.81502L83.4893 5.3353C83.8643 5.38908 84.1857 5.62573 84.35 5.96635L95.7143 29.5414C95.9464 30.0218 95.8143 30.5955 95.4036 30.929L91.6143 33.9767C91.4107 34.138 91.1607 34.2241 90.9036 34.2241Z" fill="#3D345F"/>
<path d="M87.1143 84.4183C86.4857 84.4183 85.9786 83.9091 85.9786 83.2781V31.5637C85.9786 30.9326 86.4857 30.4235 87.1143 30.4235C87.7429 30.4235 88.25 30.9326 88.25 31.5637V83.2781C88.25 83.9091 87.7429 84.4183 87.1143 84.4183Z" fill="#3D345F"/>
<path d="M84.0857 83.6581H90.1429C90.7714 83.6581 91.2822 84.1672 91.2822 84.7947V90.8758C91.2822 91.5068 90.775 92.0196 90.15 92.0196C90.15 92.0196 90.1464 92.0196 90.1429 92.0196H84.0857C83.4572 92.0196 82.95 91.5104 82.95 90.8794V84.7983C82.95 84.1672 83.4572 83.6581 84.0857 83.6581ZM89.0107 85.9385H85.2214V89.7428H89.0107V85.9385Z" fill="#3D345F"/>
<path d="M6.0607 80.614H13.6357C14.2643 80.614 14.7714 81.1232 14.7714 81.7542V90.883C14.7714 91.5141 14.2607 92.0232 13.6357 92.0232H6.0607C5.43213 92.0232 4.92499 91.5141 4.92499 90.883V81.7542C4.92499 81.1232 5.43213 80.614 6.0607 80.614ZM12.5 82.8944H7.19642V89.7392H12.5V82.8944Z" fill="#3D345F"/>
<path d="M9.84641 82.1378C9.21784 82.1378 8.71069 81.6287 8.71069 80.9976V54.3785C8.71069 53.7474 9.21784 53.2383 9.84641 53.2383C10.475 53.2383 10.9821 53.7474 10.9821 54.3785V80.9976C10.9821 81.6287 10.475 82.1378 9.84641 82.1378Z" fill="#3D345F"/>
</g>
</svg>
