<svg width="100" height="123" viewBox="0 0 100 123" fill="none" xmlns="http://www.w3.org/2000/svg">
<g clip-path="url(#clip0_5_169)">
<path d="M87.8957 51.4689C90.4722 51.4599 93.0455 51.6508 95.5924 52.04C96.5494 52.2097 97.4312 52.6695 98.1184 53.3572C98.8057 54.0449 99.2651 54.9274 99.4347 55.885C99.5696 56.6951 102.77 75.885 92.2668 86.3967C85.8734 92.7961 76.3474 94.1394 69.4669 94.1394C66.8926 94.1532 64.3212 93.9626 61.777 93.5697C60.82 93.4 59.9382 92.9402 59.251 92.2525C58.5637 91.5647 58.1042 90.6823 57.9347 89.7246C57.7998 88.9146 54.597 69.7246 65.1012 59.213C71.4973 52.8123 81.0274 51.4689 87.8957 51.4689ZM90.4995 60.9964C89.7238 60.9505 88.8293 60.9262 87.8957 60.9195C83.7337 60.9195 76.1059 61.5661 71.7806 65.8931C67.1559 70.5212 66.5636 79.1455 66.8726 84.6106C67.6483 84.6565 68.5239 84.6862 69.471 84.6862C73.6343 84.6862 81.2635 84.0395 85.5888 79.7111C90.2148 75.0844 90.8071 66.4602 90.4995 60.9964Z" fill="white"/>
<path d="M12.0799 51.4689C18.9482 51.4689 28.4784 52.8123 34.8799 59.2116C45.3827 69.722 42.188 88.9133 42.0463 89.7233C41.8768 90.681 41.4173 91.5634 40.7301 92.2511C40.0429 92.9389 39.1611 93.3987 38.2041 93.5683C35.6598 93.9613 33.0885 94.1518 30.5142 94.138C23.6445 94.138 14.113 92.788 7.71422 86.394C-0.226638 78.4542 -0.392578 65.4922 0.214521 58.4731C0.330544 57.092 0.541005 55.885 0.541005 55.885C0.711441 54.9278 1.17122 54.0458 1.85829 53.3583C2.54536 52.6707 3.42666 52.2106 4.38327 52.04C6.92969 51.6462 9.50332 51.4553 12.0799 51.4689ZM33.1044 84.6106C33.4134 79.1455 32.8211 70.5212 28.1964 65.8931C23.8711 61.5648 16.2433 60.9195 12.0813 60.9195C11.145 60.9195 10.2775 60.9492 9.50853 60.9937C9.25895 65.989 9.58273 74.8995 14.3883 79.7112C18.7135 84.0408 26.3427 84.6862 30.5061 84.6862C31.4531 84.6875 32.3287 84.6565 33.1044 84.6106Z" fill="white"/>
<path d="M49.9885 122.217C48.7362 122.217 47.5352 121.719 46.6496 120.833C45.7641 119.947 45.2666 118.745 45.2666 117.492V61.3285C45.2666 60.0753 45.7641 58.8734 46.6496 57.9873C47.5352 57.1011 48.7362 56.6033 49.9885 56.6033C51.2408 56.6033 52.4419 57.1011 53.3274 57.9873C54.2129 58.8734 54.7104 60.0753 54.7104 61.3285V117.492C54.7104 118.745 54.2129 119.947 53.3274 120.833C52.4419 121.719 51.2408 122.217 49.9885 122.217Z" fill="white"/>
<path d="M49.9858 106.243C49.3656 106.244 48.7513 106.122 48.1783 105.884C47.6052 105.647 47.0848 105.298 46.6467 104.859L1.85632 60.0365C1.4178 59.5977 1.06995 59.0768 0.832622 58.5035C0.595295 57.9301 0.473145 57.3157 0.473145 56.6951C0.473145 56.0745 0.595295 55.46 0.832622 54.8867C1.06995 54.3134 1.4178 53.7924 1.85632 53.3536C2.2948 52.9148 2.81535 52.5667 3.38827 52.3292C3.96119 52.0917 4.57524 51.9695 5.19537 51.9695C5.81549 51.9695 6.42955 52.0917 7.00246 52.3292C7.57538 52.5667 8.09594 52.9148 8.53441 53.3536L53.3248 98.1761C53.9853 98.837 54.435 99.6789 54.6173 100.596C54.7995 101.512 54.706 102.462 54.3486 103.326C53.9911 104.189 53.3859 104.927 52.6093 105.447C51.8327 105.966 50.9197 106.243 49.9858 106.243Z" fill="white"/>
<path d="M49.9885 106.243C49.3683 106.244 48.754 106.122 48.181 105.884C47.608 105.647 47.0875 105.298 46.6495 104.859C46.211 104.42 45.8631 103.899 45.6258 103.326C45.3884 102.753 45.2663 102.138 45.2663 101.518C45.2663 100.897 45.3884 100.282 45.6258 99.7092C45.8631 99.1358 46.211 98.6149 46.6495 98.1761L91.4399 53.3536C91.8784 52.9148 92.3989 52.5667 92.9718 52.3292C93.5448 52.0917 94.1588 51.9695 94.7789 51.9695C95.3991 51.9695 96.0131 52.0917 96.586 52.3292C97.1589 52.5667 97.6795 52.9148 98.118 53.3536C98.5565 53.7924 98.9044 54.3134 99.1417 54.8867C99.379 55.46 99.5012 56.0745 99.5012 56.6951C99.5012 57.3157 99.379 57.9301 99.1417 58.5035C98.9044 59.0768 98.5565 59.5977 98.118 60.0365L53.3276 104.859C52.8895 105.298 52.3691 105.647 51.796 105.884C51.223 106.122 50.6087 106.244 49.9885 106.243Z" fill="white"/>
<path d="M49.9885 66.0537C44.6838 66.0476 39.598 63.9361 35.847 60.1824C32.096 56.4287 29.986 51.3393 29.9799 46.0308V37.3457C29.9799 36.0925 30.4774 34.8906 31.3629 34.0045C32.2484 33.1183 33.4494 32.6205 34.7018 32.6205H65.2739C66.5262 32.6205 67.7273 33.1183 68.6128 34.0045C69.4983 34.8906 69.9958 36.0925 69.9958 37.3457V46.0308C69.9901 51.3392 67.8804 56.4286 64.1296 60.1823C60.3788 63.9361 55.2932 66.0476 49.9885 66.0537ZM39.4237 42.071V46.0308C39.4079 47.4291 39.6694 48.8167 40.1933 50.1132C40.7171 51.4097 41.4927 52.5893 42.4753 53.5837C43.4578 54.5781 44.6277 55.3676 45.9173 55.9064C47.2068 56.4452 48.5904 56.7227 49.9878 56.7227C51.3853 56.7227 52.7689 56.4452 54.0584 55.9064C55.348 55.3676 56.5179 54.5781 57.5004 53.5837C58.483 52.5893 59.2586 51.4097 59.7824 50.1132C60.3062 48.8167 60.5678 47.4291 60.552 46.0308V42.071H39.4237Z" fill="white"/>
<path d="M30.0716 20.004H69.9054C71.1577 20.004 72.3588 20.5019 73.2443 21.388C74.1298 22.2742 74.6273 23.4761 74.6273 24.7293V37.3444C74.6273 38.5976 74.1298 39.7995 73.2443 40.6856C72.3588 41.5718 71.1577 42.0696 69.9054 42.0696H30.0716C28.8193 42.0696 27.6183 41.5718 26.7327 40.6856C25.8472 39.7995 25.3497 38.5976 25.3497 37.3444V24.7293C25.3497 23.4761 25.8472 22.2742 26.7327 21.388C27.6183 20.5019 28.8193 20.004 30.0716 20.004ZM65.1835 29.4545H34.7935V32.6191H65.1835V29.4545Z" fill="white"/>
<path d="M40.1886 0C42.7414 0.00285871 45.1888 1.01894 46.9939 2.82532C48.799 4.63171 49.8143 7.08087 49.8172 9.63548V24.7307C49.8172 25.9839 49.3197 27.1858 48.4342 28.0719C47.5486 28.9581 46.3476 29.4559 45.0953 29.4559H35.2819C34.0296 29.4559 32.8285 28.9581 31.943 28.0719C31.0575 27.1858 30.56 25.9839 30.56 24.7307V9.63548C30.5629 7.08087 31.5782 4.63171 33.3833 2.82532C35.1884 1.01894 37.6358 0.00285871 40.1886 0ZM40.3734 20.0054V9.63548L40.1886 9.45052C40.1396 9.45052 40.0926 9.47001 40.0579 9.50469C40.0232 9.53938 40.0038 9.58643 40.0038 9.63548V20.0054H40.3734Z" fill="white"/>
<path d="M59.7898 0C62.3426 0.00285871 64.79 1.01894 66.5951 2.82532C68.4002 4.63171 69.4155 7.08087 69.4184 9.63548V24.7307C69.4184 25.9839 68.9209 27.1858 68.0354 28.0719C67.1498 28.9581 65.9488 29.4559 64.6965 29.4559H54.8831C53.6308 29.4559 52.4297 28.9581 51.5442 28.0719C50.6587 27.1858 50.1612 25.9839 50.1612 24.7307V9.63548C50.1641 7.08087 51.1794 4.63171 52.9845 2.82532C54.7896 1.01894 57.237 0.00285871 59.7898 0ZM59.9746 20.0054V9.63548L59.7898 9.45052C59.7408 9.45052 59.6938 9.47001 59.6591 9.50469C59.6244 9.53938 59.605 9.58643 59.605 9.63548V20.0054H59.9746Z" fill="white"/>
<path d="M69.9054 24.7292H30.0717V37.3443H69.9054V24.7292Z" fill="#B0D7E1"/>
<path d="M30.0716 22.7042H69.9054C70.4421 22.7042 70.9569 22.9176 71.3364 23.2974C71.7159 23.6771 71.9291 24.1922 71.9291 24.7293V37.3444C71.9291 37.8815 71.7159 38.3966 71.3364 38.7764C70.9569 39.1562 70.4421 39.3695 69.9054 39.3695H30.0716C29.5349 39.3695 29.0202 39.1562 28.6407 38.7764C28.2612 38.3966 28.048 37.8815 28.048 37.3444V24.7293C28.048 24.1922 28.2612 23.6771 28.6407 23.2974C29.0202 22.9176 29.5349 22.7042 30.0716 22.7042ZM67.8818 26.7544H32.0953V35.3193H67.8818V26.7544Z" fill="#3D345F"/>
<mask id="mask0_5_169" style="mask-type:luminance" maskUnits="userSpaceOnUse" x="2" y="2" width="96" height="118">
<path d="M97.6566 2.34778H2.31912V119.874H97.6566V2.34778Z" fill="white"/>
</mask>
<g mask="url(#mask0_5_169)">
<path d="M49.9885 61.3299C45.9342 61.3299 42.046 59.7182 39.1792 56.8493C36.3123 53.9804 34.7018 50.0894 34.7018 46.0322V37.3472H65.2739V46.0322C65.2739 50.0892 63.6636 53.98 60.797 56.8488C57.9305 59.7177 54.0426 61.3295 49.9885 61.3299Z" fill="#B0D7E1"/>
<path d="M49.9885 63.355C45.3975 63.355 40.9946 61.5299 37.7482 58.2812C34.5019 55.0326 32.6781 50.6265 32.6781 46.0322V37.3471C32.6781 36.81 32.8913 36.2949 33.2708 35.9152C33.6504 35.5354 34.1651 35.322 34.7018 35.322H65.274C65.8107 35.322 66.3254 35.5354 66.7049 35.9152C67.0844 36.2949 67.2976 36.81 67.2976 37.3471V46.0322C67.2976 50.6262 65.474 55.0321 62.228 58.2808C58.982 61.5294 54.5793 63.3546 49.9885 63.355ZM36.7255 39.3722V46.0322C36.7078 47.7863 37.0378 49.5266 37.6963 51.1523C38.3549 52.7781 39.329 54.257 40.5623 55.5037C41.7956 56.7504 43.2636 57.74 44.8814 58.4154C46.4993 59.0908 48.2349 59.4386 49.9879 59.4386C51.7409 59.4386 53.4765 59.0908 55.0943 58.4154C56.7122 57.74 58.1802 56.7504 59.4135 55.5037C60.6468 54.257 61.6208 52.7781 62.2794 51.1523C62.938 49.5266 63.268 47.7863 63.2503 46.0322V39.3722H36.7255Z" fill="#3D345F"/>
<path d="M40.1886 4.72534C39.5443 4.72534 38.9062 4.85235 38.3109 5.09911C37.7156 5.34587 37.1747 5.70756 36.7191 6.16351C36.2634 6.61947 35.902 7.16077 35.6554 7.7565C35.4088 8.35224 35.2819 8.99074 35.2819 9.63556V24.7307H45.094V9.63556C45.094 8.33352 44.5772 7.0848 43.6573 6.16399C42.7374 5.24318 41.4897 4.7257 40.1886 4.72534Z" fill="white"/>
<path d="M40.1886 2.7002C42.0261 2.70198 43.7878 3.43324 45.0872 4.73348C46.3865 6.03372 47.1172 7.79671 47.119 9.63553V24.7307C47.119 25.2678 46.9058 25.7829 46.5263 26.1627C46.1468 26.5425 45.632 26.7558 45.0953 26.7558H35.2819C34.7452 26.7558 34.2305 26.5425 33.851 26.1627C33.4714 25.7829 33.2582 25.2678 33.2582 24.7307V9.63553C33.26 7.79671 33.9908 6.03372 35.2901 4.73348C36.5894 3.43324 38.3511 2.70198 40.1886 2.7002ZM43.0717 22.7056V9.63553C43.08 9.25149 43.0115 8.86965 42.8704 8.51243C42.7293 8.1552 42.5183 7.82977 42.2498 7.55522C41.9814 7.28068 41.6608 7.06255 41.307 6.91364C40.9531 6.76472 40.5731 6.68801 40.1893 6.68801C39.8054 6.68801 39.4254 6.76472 39.0716 6.91364C38.7178 7.06255 38.3972 7.28068 38.1287 7.55522C37.8603 7.82977 37.6493 8.1552 37.5082 8.51243C37.367 8.86965 37.2986 9.25149 37.3069 9.63553V22.7056H43.0717Z" fill="#3D345F"/>
<path d="M59.7885 4.72534C60.4328 4.72534 61.0709 4.85235 61.6662 5.09911C62.2615 5.34587 62.8024 5.70756 63.258 6.16351C63.7137 6.61947 64.0751 7.16077 64.3217 7.7565C64.5683 8.35224 64.6952 8.99074 64.6952 9.63556V24.7307H54.8818V9.63556C54.8818 8.33329 55.3987 7.08436 56.3189 6.16351C57.2391 5.24267 58.4871 4.72534 59.7885 4.72534Z" fill="white"/>
<path d="M59.7885 2.7002C61.626 2.70198 63.3877 3.43324 64.687 4.73348C65.9863 6.03372 66.7171 7.79671 66.7188 9.63553V24.7307C66.7188 25.2678 66.5056 25.7829 66.1261 26.1627C65.7466 26.5425 65.2319 26.7558 64.6952 26.7558H54.8818C54.3451 26.7558 53.8303 26.5425 53.4508 26.1627C53.0713 25.7829 52.8581 25.2678 52.8581 24.7307V9.63553C52.8599 7.79671 53.5906 6.03372 54.8899 4.73348C56.1892 3.43324 57.951 2.70198 59.7885 2.7002ZM62.6715 22.7056V9.63553C62.6552 8.88133 62.3444 8.16353 61.8056 7.63591C61.2668 7.10829 60.543 6.81283 59.7891 6.81283C59.0353 6.81283 58.3115 7.10829 57.7727 7.63591C57.2339 8.16353 56.9231 8.88133 56.9068 9.63553V22.7056H62.6715Z" fill="#3D345F"/>
<path d="M49.9885 119.517C49.4518 119.517 48.9371 119.303 48.5576 118.924C48.1781 118.544 47.9649 118.029 47.9649 117.492V61.3285C47.9649 60.7914 48.1781 60.2763 48.5576 59.8965C48.9371 59.5167 49.4518 59.3033 49.9885 59.3033C50.5252 59.3033 51.04 59.5167 51.4195 59.8965C51.799 60.2763 52.0122 60.7914 52.0122 61.3285V117.492C52.0122 118.029 51.799 118.544 51.4195 118.924C51.04 119.303 50.5252 119.517 49.9885 119.517Z" fill="#3D345F"/>
<path d="M31.5354 62.553C40.4261 71.45 37.3892 88.9132 37.3892 88.9132C37.3892 88.9132 19.9398 91.9508 11.0492 83.0525C2.15857 74.1542 5.19407 56.695 5.19407 56.695C5.19407 56.695 22.638 53.66 31.5354 62.553Z" fill="#00B4AF"/>
<path d="M12.0799 54.1691C18.4383 54.1691 27.2237 55.3747 32.9655 61.1207C35.3335 63.5674 37.0982 66.5334 38.1191 69.7827C39.0748 72.7493 39.6448 75.8267 39.8149 78.9389C40.0407 82.385 39.8955 85.8453 39.3818 89.2603C39.3104 89.6714 39.1139 90.0504 38.819 90.3455C38.5242 90.6405 38.1454 90.8372 37.7346 90.9087C35.3422 91.2748 32.9248 91.4522 30.5047 91.4393C24.145 91.4393 15.3583 90.2337 9.61646 84.4864C7.24853 82.0401 5.48386 79.0746 4.46286 75.8257C3.50745 72.8586 2.93794 69.7808 2.76838 66.6681C2.54223 63.2226 2.68696 59.7627 3.2001 56.3481C3.2715 55.937 3.46807 55.558 3.76293 55.2629C4.05778 54.9679 4.43653 54.7712 4.84736 54.6997C7.2406 54.3335 9.65891 54.1561 12.0799 54.1691ZM35.5895 87.1109C36.0482 82.9041 36.7295 70.6103 30.1081 63.9842C25.3471 59.2198 17.6787 58.2193 12.084 58.2193C10.3857 58.2193 8.68875 58.3117 7.00054 58.4961C6.53914 62.7056 5.85919 74.9913 12.4793 81.6215C17.2403 86.3873 24.91 87.3877 30.5047 87.3877C32.2034 87.3878 33.9008 87.2954 35.5895 87.1109Z" fill="#3D345F"/>
<path d="M49.9858 103.543C49.72 103.543 49.4568 103.49 49.2112 103.389C48.9656 103.287 48.7424 103.138 48.5544 102.95L3.76401 58.1275C3.38463 57.7477 3.17151 57.2327 3.17151 56.6957C3.17151 56.1587 3.38463 55.6437 3.76401 55.2639C4.1435 54.8843 4.65814 54.671 5.19474 54.671C5.73134 54.671 6.24598 54.8843 6.62547 55.2639L51.4159 100.086C51.6985 100.37 51.891 100.73 51.9689 101.123C52.0469 101.515 52.0068 101.922 51.8538 102.292C51.7008 102.662 51.4416 102.978 51.1092 103.201C50.7767 103.423 50.3858 103.542 49.9858 103.543Z" fill="#3D345F"/>
<path d="M68.4417 62.553C59.551 71.45 62.5879 88.9132 62.5879 88.9132C62.5879 88.9132 80.0386 91.9508 88.9279 83.0539C97.8172 74.1569 94.783 56.695 94.783 56.695C94.783 56.695 77.3323 53.66 68.4417 62.553Z" fill="#00B4AF"/>
<path d="M87.8944 54.1691C90.3155 54.1561 92.7338 54.3335 95.127 54.6997C95.5379 54.7711 95.9166 54.9679 96.2115 55.2629C96.5063 55.558 96.7029 55.937 96.7743 56.3481C97.2874 59.7627 97.4322 63.2226 97.206 66.6681C97.0359 69.7804 96.4659 72.8578 95.5102 75.8243C94.4892 79.0732 92.7245 82.0388 90.3566 84.485C84.6161 90.231 75.8294 91.4379 69.4683 91.4379C67.0482 91.4508 64.6308 91.2734 62.2384 90.9073C61.8276 90.8359 61.4489 90.6392 61.154 90.3441C60.8592 90.049 60.6626 89.67 60.5912 89.2589C60.0775 85.8439 59.9323 82.3836 60.1581 78.9376C60.3282 75.8253 60.8982 72.7479 61.8539 69.7814C62.8748 66.532 64.6395 63.566 67.0075 61.1193C72.7507 55.3761 81.5361 54.1691 87.8944 54.1691ZM92.9792 58.4961C91.291 58.3117 89.594 58.2193 87.8958 58.2193C82.3024 58.2193 74.6354 59.2197 69.873 63.9842C63.253 70.609 63.937 82.9027 64.3916 87.1109C66.0785 87.2952 67.7741 87.3876 69.471 87.3877C75.0658 87.3877 82.7355 86.3873 87.4965 81.6215C94.1152 74.9981 93.4379 62.7056 92.9792 58.4961Z" fill="#3D345F"/>
<path d="M49.9872 103.543C49.7214 103.543 49.4582 103.49 49.2126 103.389C48.967 103.287 48.7438 103.138 48.5558 102.95C48.1764 102.57 47.9633 102.055 47.9633 101.518C47.9633 100.981 48.1764 100.466 48.5558 100.086L93.3462 55.2639C93.7257 54.8843 94.2403 54.671 94.7769 54.671C95.3135 54.671 95.8282 54.8843 96.2077 55.2639C96.587 55.6437 96.8002 56.1587 96.8002 56.6957C96.8002 57.2327 96.587 57.7477 96.2077 58.1275L51.4172 102.95C51.0379 103.329 50.5235 103.542 49.9872 103.543Z" fill="#3D345F"/>
<path d="M49.9858 103.543C49.72 103.543 49.4568 103.49 49.2112 103.389C48.9656 103.287 48.7424 103.138 48.5544 102.95L3.76401 58.1275C3.38463 57.7477 3.17151 57.2327 3.17151 56.6957C3.17151 56.1587 3.38463 55.6437 3.76401 55.2639C4.1435 54.8843 4.65814 54.671 5.19474 54.671C5.73134 54.671 6.24598 54.8843 6.62547 55.2639L51.4159 100.086C51.6985 100.37 51.891 100.73 51.9689 101.123C52.0469 101.515 52.0068 101.922 51.8538 102.292C51.7008 102.662 51.4416 102.978 51.1092 103.201C50.7767 103.423 50.3858 103.542 49.9858 103.543Z" fill="#3D345F"/>
<path d="M49.9872 103.543C49.7214 103.543 49.4582 103.49 49.2126 103.389C48.967 103.287 48.7438 103.138 48.5558 102.95C48.1764 102.57 47.9633 102.055 47.9633 101.518C47.9633 100.981 48.1764 100.466 48.5558 100.086L93.3462 55.2639C93.7257 54.8843 94.2403 54.671 94.7769 54.671C95.3135 54.671 95.8282 54.8843 96.2077 55.2639C96.587 55.6437 96.8002 56.1587 96.8002 56.6957C96.8002 57.2327 96.587 57.7477 96.2077 58.1275L51.4172 102.95C51.0379 103.329 50.5235 103.542 49.9872 103.543Z" fill="#3D345F"/>
</g>
</g>
<defs>
<clipPath id="clip0_5_169">
<rect width="100" height="122.222" fill="white"/>
</clipPath>
</defs>
</svg>
