<svg width="100" height="124" viewBox="0 0 100 124" fill="none" xmlns="http://www.w3.org/2000/svg">
<g clip-path="url(#clip0_5_206)">
<mask id="mask0_5_206" style="mask-type:luminance" maskUnits="userSpaceOnUse" x="0" y="0" width="100" height="124">
<path d="M100 0H0V123.57H100V0Z" fill="white"/>
</mask>
<g mask="url(#mask0_5_206)">
<path d="M84.5445 23.518C86.0235 23.518 87.4418 22.9305 88.4876 21.8847C89.5334 20.839 90.1209 19.4206 90.1209 17.9417C90.1209 16.4627 89.5334 15.0444 88.4876 13.9986C87.4418 12.9529 86.0235 12.3654 84.5445 12.3654H15.4568C13.9779 12.3654 12.5595 12.9529 11.5137 13.9986C10.468 15.0444 9.88047 16.4627 9.88047 17.9417C9.88047 19.4206 10.468 20.839 11.5137 21.8847C12.5595 22.9305 13.9779 23.518 15.4568 23.518H16.3531V56.2079H15.4568C13.9779 56.2079 12.5595 56.7954 11.5137 57.8411C10.468 58.8869 9.88047 60.3053 9.88047 61.7842C9.88047 63.2631 10.468 64.6815 11.5137 65.7272C12.5595 66.773 13.9779 67.3605 15.4568 67.3605H16.3531V100.05H15.4568C13.9777 100.05 12.5591 100.638 11.5133 101.684C10.4674 102.73 9.87979 104.148 9.87979 105.627C9.87979 107.106 10.4674 108.525 11.5133 109.571C12.5591 110.617 13.9777 111.204 15.4568 111.204H84.5445C86.0236 111.204 87.4422 110.617 88.4881 109.571C89.534 108.525 90.1215 107.106 90.1215 105.627C90.1215 104.148 89.534 102.73 88.4881 101.684C87.4422 100.638 86.0236 100.05 84.5445 100.05H83.6482V67.3605H84.5445C86.0235 67.3605 87.4418 66.773 88.4876 65.7272C89.5334 64.6815 90.1209 63.2631 90.1209 61.7842C90.1209 60.3053 89.5334 58.8869 88.4876 57.8411C87.4418 56.7954 86.0235 56.2079 84.5445 56.2079H83.6482V23.518H84.5445Z" fill="white"/>
<path d="M15.4568 6.90845H84.5445C87.0655 6.90823 89.5105 7.77137 91.4725 9.3542C93.4346 10.937 94.7955 13.1441 95.3286 15.608C95.8617 18.0719 95.5349 20.6441 94.4026 22.8964C93.2703 25.1488 91.4008 26.9454 89.1052 27.9873V51.8915C91.0297 52.7319 92.6673 54.1156 93.8171 55.8729C94.9669 57.6302 95.5791 59.6848 95.5785 61.7849C95.576 63.9036 94.9645 65.9769 93.8168 67.7579C92.6691 69.5388 91.0336 70.9522 89.1052 71.8298V95.734C91.0297 96.5744 92.6673 97.9581 93.8171 99.7154C94.9669 101.473 95.5791 103.527 95.5785 105.627C95.5742 108.552 94.4103 111.356 92.3419 113.425C90.2736 115.493 87.4696 116.657 84.5445 116.661H15.4568C12.9372 116.659 10.4941 115.795 8.53369 114.212C6.57328 112.63 5.21363 110.424 4.68078 107.961C4.14792 105.498 4.47396 102.927 5.60468 100.676C6.7354 98.4241 8.6027 96.6272 10.8962 95.5839V71.6756C8.97182 70.8357 7.33437 69.4525 6.18454 67.6956C5.03471 65.9388 4.42247 63.8846 4.42285 61.7849C4.42482 59.6657 5.0361 57.5918 6.18382 55.8104C7.33155 54.0289 8.96732 52.6151 10.8962 51.7373V27.8331C8.97182 26.9928 7.33442 25.6093 6.18462 23.8522C5.03481 22.0952 4.42255 20.0409 4.42285 17.941C4.42754 15.0162 5.5916 12.2126 7.65989 10.1445C9.72818 8.07648 12.532 6.91278 15.4568 6.90845ZM83.6482 18.0611L15.4568 17.8223C15.4411 17.8222 15.4255 17.8251 15.411 17.831C15.3964 17.8369 15.3832 17.8456 15.372 17.8566C15.3608 17.8677 15.352 17.8808 15.3459 17.8953C15.3399 17.9098 15.3368 17.9253 15.3368 17.941H20.7937L21.8101 23.518V105.509H16.3531L79.0849 105.73L78.1913 100.052V61.9036V18.0611H83.6482Z" fill="white"/>
<path d="M15.4568 10.3191H84.5445C86.4649 10.3214 88.3137 11.0485 89.7213 12.3549C91.1288 13.6613 91.9915 15.4508 92.1368 17.3657C92.2821 19.2806 91.6993 21.1798 90.5049 22.6836C89.3106 24.1874 87.5927 25.1851 85.6946 25.4771V54.2475C87.4962 54.5226 89.1397 55.4339 90.3271 56.8165C91.5146 58.199 92.1675 59.9611 92.1675 61.7836C92.1675 63.6061 91.5146 65.3682 90.3271 66.7507C89.1397 68.1333 87.4962 69.0446 85.6946 69.3196V98.0901C87.5964 98.3781 89.3191 99.3744 90.5171 100.879C91.7152 102.384 92.3001 104.286 92.1547 106.204C92.0092 108.122 91.144 109.914 89.7326 111.221C88.3213 112.528 86.4681 113.253 84.5445 113.251H15.4568C13.5333 113.253 11.6801 112.528 10.2687 111.221C8.85737 109.914 7.99221 108.122 7.84671 106.204C7.70122 104.286 8.28615 102.384 9.48422 100.879C10.6823 99.3744 12.4049 98.3781 14.3068 98.0901V69.3196C12.5052 69.0446 10.8617 68.1333 9.67424 66.7507C8.48677 65.3682 7.83388 63.6061 7.83388 61.7836C7.83388 59.9611 8.48677 58.199 9.67424 56.8165C10.8617 55.4339 12.5052 54.5226 14.3068 54.2475V25.4771C12.4087 25.1851 10.6908 24.1874 9.49644 22.6836C8.30209 21.1798 7.7193 19.2806 7.86459 17.3657C8.00987 15.4508 8.87252 13.6613 10.2801 12.3549C11.6876 11.0485 13.5364 10.3214 15.4568 10.3191ZM84.5445 21.4717C85.4808 21.4717 86.3786 21.0998 87.0406 20.4378C87.7026 19.7758 88.0745 18.878 88.0745 17.9418C88.0745 17.0056 87.7026 16.1077 87.0406 15.4457C86.3786 14.7837 85.4808 14.4118 84.5445 14.4118H15.4568C14.5206 14.4118 13.6228 14.7837 12.9608 15.4457C12.2988 16.1077 11.9269 17.0056 11.9269 17.9418C11.9269 18.878 12.2988 19.7758 12.9608 20.4378C13.6228 21.0998 14.5206 21.4717 15.4568 21.4717H16.3531C16.8958 21.4717 17.4163 21.6873 17.8001 22.0711C18.1839 22.4549 18.3995 22.9754 18.3995 23.5181V56.208C18.3995 56.7507 18.1839 57.2712 17.8001 57.6549C17.4163 58.0387 16.8958 58.2543 16.3531 58.2543H15.4568C14.5206 58.2543 13.6228 58.6262 12.9608 59.2882C12.2988 59.9502 11.9269 60.8481 11.9269 61.7843C11.9269 62.7205 12.2988 63.6183 12.9608 64.2803C13.6228 64.9423 14.5206 65.3142 15.4568 65.3142H16.3531C16.8958 65.3142 17.4163 65.5298 17.8001 65.9136C18.1839 66.2974 18.3995 66.8179 18.3995 67.3606V100.05C18.3995 100.593 18.1839 101.114 17.8001 101.497C17.4163 101.881 16.8958 102.097 16.3531 102.097H15.4568C14.5204 102.097 13.6224 102.469 12.9603 103.131C12.2981 103.793 11.9262 104.691 11.9262 105.627C11.9262 106.564 12.2981 107.462 12.9603 108.124C13.6224 108.786 14.5204 109.158 15.4568 109.158H84.5445C85.4809 109.158 86.379 108.786 87.0411 108.124C87.7032 107.462 88.0752 106.564 88.0752 105.627C88.0752 104.691 87.7032 103.793 87.0411 103.131C86.379 102.469 85.4809 102.097 84.5445 102.097H83.6482C83.1055 102.097 82.585 101.881 82.2013 101.497C81.8175 101.114 81.6019 100.593 81.6019 100.05V67.3606C81.6019 66.8179 81.8175 66.2974 82.2013 65.9136C82.585 65.5298 83.1055 65.3142 83.6482 65.3142H84.5445C85.4808 65.3142 86.3786 64.9423 87.0406 64.2803C87.7026 63.6183 88.0745 62.7205 88.0745 61.7843C88.0745 60.8481 87.7026 59.9502 87.0406 59.2882C86.3786 58.6262 85.4808 58.2543 84.5445 58.2543H83.6482C83.1055 58.2543 82.585 58.0387 82.2013 57.6549C81.8175 57.2712 81.6019 56.7507 81.6019 56.208V23.5181C81.6019 22.9754 81.8175 22.4549 82.2013 22.0711C82.585 21.6873 83.1055 21.4717 83.6482 21.4717H84.5445Z" fill="#3D345F"/>
<path d="M83.6482 25.5657H15.4568C14.9141 25.5657 14.3936 25.3501 14.0098 24.9664C13.6261 24.5826 13.4105 24.0621 13.4105 23.5194C13.4105 22.9767 13.6261 22.4562 14.0098 22.0724C14.3936 21.6886 14.9141 21.473 15.4568 21.473H83.6482C84.191 21.473 84.7115 21.6886 85.0952 22.0724C85.479 22.4562 85.6946 22.9767 85.6946 23.5194C85.6946 24.0621 85.479 24.5826 85.0952 24.9664C84.7115 25.3501 84.191 25.5657 83.6482 25.5657Z" fill="#3D345F"/>
<path d="M83.6469 69.4083H16.3531C15.8104 69.4083 15.2899 69.1927 14.9061 68.8089C14.5224 68.4251 14.3068 67.9046 14.3068 67.3619C14.3068 66.8192 14.5224 66.2987 14.9061 65.9149C15.2899 65.5311 15.8104 65.3156 16.3531 65.3156H83.6469C84.1896 65.3156 84.7101 65.5311 85.0939 65.9149C85.4776 66.2987 85.6932 66.8192 85.6932 67.3619C85.6932 67.9046 85.4776 68.4251 85.0939 68.8089C84.7101 69.1927 84.1896 69.4083 83.6469 69.4083Z" fill="#3D345F"/>
<path d="M83.6469 58.2557H16.3531C15.8104 58.2557 15.2899 58.0401 14.9061 57.6563C14.5224 57.2725 14.3068 56.752 14.3068 56.2093C14.3068 55.6666 14.5224 55.1461 14.9061 54.7623C15.2899 54.3786 15.8104 54.163 16.3531 54.163H83.6469C84.1896 54.163 84.7101 54.3786 85.0939 54.7623C85.4776 55.1461 85.6932 55.6666 85.6932 56.2093C85.6932 56.752 85.4776 57.2725 85.0939 57.6563C84.7101 58.0401 84.1896 58.2557 83.6469 58.2557Z" fill="#3D345F"/>
<path d="M83.6469 102.098H16.3531C15.8104 102.098 15.2899 101.882 14.9061 101.499C14.5224 101.115 14.3068 100.594 14.3068 100.052C14.3068 99.509 14.5224 98.9885 14.9061 98.6047C15.2899 98.221 15.8104 98.0054 16.3531 98.0054H83.6469C84.1896 98.0054 84.7101 98.221 85.0939 98.6047C85.4776 98.9885 85.6932 99.509 85.6932 100.052C85.6932 100.594 85.4776 101.115 85.0939 101.499C84.7101 101.882 84.1896 102.098 83.6469 102.098Z" fill="#3D345F"/>
<path d="M73.9471 61.785C73.9471 66.5207 72.5428 71.1502 69.9118 75.0879C67.2808 79.0255 63.5413 82.0946 59.1661 83.9071C54.7908 85.7195 49.9764 86.1939 45.3316 85.2702C40.6868 84.3464 36.4201 82.0662 33.0712 78.7177C29.7224 75.3691 27.4416 71.1028 26.5174 66.4581C25.5931 61.8134 26.0669 56.9989 27.8789 52.6234C29.6908 48.248 32.7595 44.5081 36.6969 41.8766C40.6343 39.2452 45.2635 37.8404 49.9993 37.8398C56.3502 37.8398 62.441 40.3625 66.932 44.853C71.423 49.3435 73.9464 55.4341 73.9471 61.785Z" fill="#B0D7E1"/>
<path d="M49.9993 35.7935C56.4227 35.7995 62.6149 38.1911 67.3747 42.5043C72.1345 46.8175 75.1227 52.7448 75.7596 59.1365C76.3965 65.5282 74.6367 71.9287 70.8216 77.0963C67.0064 82.2639 61.4079 85.8304 55.1121 87.1038C48.8162 88.3773 42.2718 87.2669 36.7482 83.9882C31.2247 80.7094 27.1158 75.496 25.2186 69.3592C23.3215 63.2224 23.7712 56.5997 26.4806 50.7757C29.1901 44.9518 33.966 40.3417 39.8821 37.8398C43.0825 36.484 46.5236 35.788 49.9993 35.7935ZM49.9993 83.6782C54.3306 83.6788 58.5648 82.3949 62.1664 79.989C65.7679 77.583 68.5752 74.1631 70.2331 70.1617C71.891 66.1602 72.325 61.7571 71.4804 57.5089C70.6357 53.2608 68.5503 49.3586 65.4878 46.2957C62.4253 43.2328 58.5233 41.1469 54.2753 40.3017C50.0273 39.4565 45.624 39.89 41.6224 41.5474C37.6208 43.2048 34.2005 46.0116 31.7941 49.6129C29.3877 53.2142 28.1033 57.4482 28.1033 61.7795C28.1084 67.586 30.4166 73.1534 34.5215 77.2601C38.6264 81.3668 44.1928 83.6775 49.9993 83.6851V83.6782Z" fill="#3D345F"/>
<path d="M59.8505 64.8067C59.8505 67.4194 58.8126 69.9251 56.9651 71.7726C55.1177 73.62 52.612 74.6579 49.9993 74.6579C47.3866 74.6579 44.8809 73.62 43.0335 71.7726C41.186 69.9251 40.1481 67.4194 40.1481 64.8067C40.1481 59.3648 49.9993 48.9106 49.9993 48.9106C49.9993 48.9106 59.8505 59.3648 59.8505 64.8067Z" fill="white"/>
</g>
</g>
<defs>
<clipPath id="clip0_5_206">
<rect width="100" height="123.57" fill="white"/>
</clipPath>
</defs>
</svg>
