<svg width="100" height="100" viewBox="0 0 100 100" fill="none" xmlns="http://www.w3.org/2000/svg">
<g clip-path="url(#clip0_5_226)">
<path d="M89.9061 49.9989C89.9063 57.8917 87.566 65.6073 83.1812 72.17C78.7963 78.7327 72.5639 83.8477 65.2719 86.8683C57.98 89.8888 49.9561 90.6792 42.215 89.1394C34.4739 87.5997 27.3632 83.799 21.7822 78.2179C16.2011 72.6369 12.4004 65.5262 10.8607 57.7851C9.32093 50.044 10.1113 42.0201 13.1318 34.7282C16.1524 27.4362 21.2674 21.2038 27.8301 16.8189C34.3928 12.4341 42.1084 10.0938 50.0012 10.094C60.5846 10.094 70.7346 14.2983 78.2182 21.7819C85.7019 29.2655 89.9061 39.4155 89.9061 49.9989Z" fill="white" stroke="white" stroke-width="8"/>
<path d="M89.9061 49.9989C89.9063 57.8917 87.566 65.6073 83.1812 72.17C78.7963 78.7327 72.5639 83.8477 65.2719 86.8683C57.98 89.8888 49.9561 90.6792 42.215 89.1394C34.4739 87.5997 27.3632 83.799 21.7822 78.2179C16.2011 72.6369 12.4004 65.5262 10.8607 57.7851C9.32093 50.044 10.1113 42.0201 13.1318 34.7282C16.1524 27.4362 21.2674 21.2038 27.8301 16.8189C34.3928 12.4341 42.1084 10.0938 50.0012 10.094C60.5846 10.094 70.7346 14.2983 78.2182 21.7819C85.7019 29.2655 89.9061 39.4155 89.9061 49.9989Z" stroke="#3D345F" stroke-width="3" stroke-linecap="round" stroke-linejoin="round"/>
<path fill-rule="evenodd" clip-rule="evenodd" d="M55.2829 21.2577C41.5435 27.8931 41.5807 38.1931 42.1325 45.3432C42.2037 45.8555 42.1672 46.3769 42.0254 46.8743C41.8835 47.3716 41.6394 47.8339 41.3087 48.2315C40.978 48.6291 40.5679 48.9533 40.1048 49.1833C39.6416 49.4134 39.1355 49.5442 38.6189 49.5675C37.5953 49.6518 36.5796 49.3308 35.7904 48.6736C35.0012 48.0165 34.5016 47.0757 34.3991 46.0539L34.2065 43.003C31.6546 47.2491 30.2466 52.084 30.1196 57.0363C30.1196 66.7215 35.2741 75.9471 44.1292 78.74C42.5103 76.9785 41.6242 74.6658 41.6516 72.2735C41.6516 62.5073 49.8119 61.3901 49.8119 51.0124C50.7583 52.3774 51.6341 53.79 52.4359 55.2446C55.4867 60.7865 54.989 67.1742 53.311 70.5088C54.9428 69.9457 56.6456 67.9997 57.3798 64.9905C58.1305 67.3265 58.5808 69.7484 58.72 72.198C58.7295 74.6354 57.7815 76.9789 56.0802 78.7242C68.1258 75.2016 73.1215 61.6334 67.7024 50.9764C64.0817 43.8601 50.3818 33.2706 55.2829 21.2577Z" fill="#B0D7E1" stroke="#3D345F" stroke-width="3" stroke-linecap="round" stroke-linejoin="round"/>
</g>
<defs>
<clipPath id="clip0_5_226">
<rect width="100" height="100" fill="white"/>
</clipPath>
</defs>
</svg>
